<mxfile host="app.diagrams.net" modified="2022-12-12T19:49:06.457Z" agent="5.0 (Windows NT 10.0; Win64; x64) AppleWebKit/537.36 (KHTML, like Gecko) Chrome/108.0.0.0 Safari/537.36 Edg/108.0.1462.46" etag="hI-waWJ53Zue6b2PIcag" version="20.4.0" type="github">
  <diagram id="C5RBs43oDa-KdzZeNtuy" name="Page-1">
    <mxGraphModel dx="1422" dy="882" grid="1" gridSize="10" guides="1" tooltips="1" connect="1" arrows="1" fold="1" page="1" pageScale="1" pageWidth="827" pageHeight="1169" math="0" shadow="0">
      <root>
        <mxCell id="WIyWlLk6GJQsqaUBKTNV-0" />
        <mxCell id="WIyWlLk6GJQsqaUBKTNV-1" parent="WIyWlLk6GJQsqaUBKTNV-0" />
        <mxCell id="HK7qRhVRVMb6XBuTCokh-2" value="" style="edgeStyle=orthogonalEdgeStyle;rounded=0;orthogonalLoop=1;jettySize=auto;html=1;" edge="1" parent="WIyWlLk6GJQsqaUBKTNV-1" source="HK7qRhVRVMb6XBuTCokh-0" target="HK7qRhVRVMb6XBuTCokh-1">
          <mxGeometry relative="1" as="geometry" />
        </mxCell>
        <mxCell id="HK7qRhVRVMb6XBuTCokh-0" value="Start" style="ellipse;whiteSpace=wrap;html=1;" vertex="1" parent="WIyWlLk6GJQsqaUBKTNV-1">
          <mxGeometry x="40" y="30" width="120" height="80" as="geometry" />
        </mxCell>
        <mxCell id="HK7qRhVRVMb6XBuTCokh-4" style="edgeStyle=orthogonalEdgeStyle;rounded=0;orthogonalLoop=1;jettySize=auto;html=1;exitX=0.5;exitY=1;exitDx=0;exitDy=0;entryX=0.5;entryY=0;entryDx=0;entryDy=0;" edge="1" parent="WIyWlLk6GJQsqaUBKTNV-1" source="HK7qRhVRVMb6XBuTCokh-1" target="HK7qRhVRVMb6XBuTCokh-3">
          <mxGeometry relative="1" as="geometry" />
        </mxCell>
        <mxCell id="HK7qRhVRVMb6XBuTCokh-1" value="Read 1st number" style="rounded=0;whiteSpace=wrap;html=1;" vertex="1" parent="WIyWlLk6GJQsqaUBKTNV-1">
          <mxGeometry x="40" y="130" width="120" height="60" as="geometry" />
        </mxCell>
        <mxCell id="HK7qRhVRVMb6XBuTCokh-15" value="" style="edgeStyle=orthogonalEdgeStyle;rounded=0;orthogonalLoop=1;jettySize=auto;html=1;" edge="1" parent="WIyWlLk6GJQsqaUBKTNV-1" source="HK7qRhVRVMb6XBuTCokh-3" target="HK7qRhVRVMb6XBuTCokh-9">
          <mxGeometry relative="1" as="geometry" />
        </mxCell>
        <mxCell id="HK7qRhVRVMb6XBuTCokh-3" value="Is max 6 digit number?" style="rhombus;whiteSpace=wrap;html=1;" vertex="1" parent="WIyWlLk6GJQsqaUBKTNV-1">
          <mxGeometry x="40" y="210" width="120" height="130" as="geometry" />
        </mxCell>
        <mxCell id="HK7qRhVRVMb6XBuTCokh-5" style="edgeStyle=orthogonalEdgeStyle;rounded=0;orthogonalLoop=1;jettySize=auto;html=1;exitX=0;exitY=0.5;exitDx=0;exitDy=0;" edge="1" parent="WIyWlLk6GJQsqaUBKTNV-1" source="HK7qRhVRVMb6XBuTCokh-3" target="HK7qRhVRVMb6XBuTCokh-3">
          <mxGeometry relative="1" as="geometry">
            <Array as="points">
              <mxPoint x="20" y="275" />
              <mxPoint x="20" y="210" />
            </Array>
          </mxGeometry>
        </mxCell>
        <mxCell id="HK7qRhVRVMb6XBuTCokh-6" value="-" style="text;html=1;strokeColor=none;fillColor=none;align=center;verticalAlign=middle;whiteSpace=wrap;rounded=0;" vertex="1" parent="WIyWlLk6GJQsqaUBKTNV-1">
          <mxGeometry y="250" width="60" height="30" as="geometry" />
        </mxCell>
        <mxCell id="HK7qRhVRVMb6XBuTCokh-7" value="+" style="text;html=1;strokeColor=none;fillColor=none;align=center;verticalAlign=middle;whiteSpace=wrap;rounded=0;" vertex="1" parent="WIyWlLk6GJQsqaUBKTNV-1">
          <mxGeometry x="80" y="330" width="60" height="30" as="geometry" />
        </mxCell>
        <mxCell id="HK7qRhVRVMb6XBuTCokh-8" style="edgeStyle=orthogonalEdgeStyle;rounded=0;orthogonalLoop=1;jettySize=auto;html=1;exitX=0.5;exitY=1;exitDx=0;exitDy=0;entryX=0.5;entryY=0;entryDx=0;entryDy=0;" edge="1" parent="WIyWlLk6GJQsqaUBKTNV-1" source="HK7qRhVRVMb6XBuTCokh-9" target="HK7qRhVRVMb6XBuTCokh-10">
          <mxGeometry relative="1" as="geometry" />
        </mxCell>
        <mxCell id="HK7qRhVRVMb6XBuTCokh-9" value="Read 2nd number" style="rounded=0;whiteSpace=wrap;html=1;" vertex="1" parent="WIyWlLk6GJQsqaUBKTNV-1">
          <mxGeometry x="40" y="360" width="120" height="60" as="geometry" />
        </mxCell>
        <mxCell id="HK7qRhVRVMb6XBuTCokh-17" value="" style="edgeStyle=orthogonalEdgeStyle;rounded=0;orthogonalLoop=1;jettySize=auto;html=1;entryX=0.5;entryY=0;entryDx=0;entryDy=0;" edge="1" parent="WIyWlLk6GJQsqaUBKTNV-1" source="HK7qRhVRVMb6XBuTCokh-10" target="HK7qRhVRVMb6XBuTCokh-21">
          <mxGeometry relative="1" as="geometry">
            <mxPoint x="100" y="610" as="targetPoint" />
          </mxGeometry>
        </mxCell>
        <mxCell id="HK7qRhVRVMb6XBuTCokh-10" value="Is max 6 digit number?" style="rhombus;whiteSpace=wrap;html=1;" vertex="1" parent="WIyWlLk6GJQsqaUBKTNV-1">
          <mxGeometry x="40" y="440" width="120" height="130" as="geometry" />
        </mxCell>
        <mxCell id="HK7qRhVRVMb6XBuTCokh-11" style="edgeStyle=orthogonalEdgeStyle;rounded=0;orthogonalLoop=1;jettySize=auto;html=1;exitX=0;exitY=0.5;exitDx=0;exitDy=0;" edge="1" parent="WIyWlLk6GJQsqaUBKTNV-1" source="HK7qRhVRVMb6XBuTCokh-10" target="HK7qRhVRVMb6XBuTCokh-10">
          <mxGeometry relative="1" as="geometry">
            <Array as="points">
              <mxPoint x="20" y="505" />
              <mxPoint x="20" y="440" />
            </Array>
          </mxGeometry>
        </mxCell>
        <mxCell id="HK7qRhVRVMb6XBuTCokh-12" value="-" style="text;html=1;strokeColor=none;fillColor=none;align=center;verticalAlign=middle;whiteSpace=wrap;rounded=0;" vertex="1" parent="WIyWlLk6GJQsqaUBKTNV-1">
          <mxGeometry y="480" width="60" height="30" as="geometry" />
        </mxCell>
        <mxCell id="HK7qRhVRVMb6XBuTCokh-13" value="+" style="text;html=1;strokeColor=none;fillColor=none;align=center;verticalAlign=middle;whiteSpace=wrap;rounded=0;" vertex="1" parent="WIyWlLk6GJQsqaUBKTNV-1">
          <mxGeometry x="80" y="570" width="60" height="30" as="geometry" />
        </mxCell>
        <mxCell id="HK7qRhVRVMb6XBuTCokh-23" value="" style="edgeStyle=orthogonalEdgeStyle;rounded=0;orthogonalLoop=1;jettySize=auto;html=1;" edge="1" parent="WIyWlLk6GJQsqaUBKTNV-1" source="HK7qRhVRVMb6XBuTCokh-21" target="HK7qRhVRVMb6XBuTCokh-22">
          <mxGeometry relative="1" as="geometry" />
        </mxCell>
        <mxCell id="HK7qRhVRVMb6XBuTCokh-38" value="" style="edgeStyle=orthogonalEdgeStyle;rounded=0;orthogonalLoop=1;jettySize=auto;html=1;entryX=0;entryY=0.5;entryDx=0;entryDy=0;" edge="1" parent="WIyWlLk6GJQsqaUBKTNV-1" source="HK7qRhVRVMb6XBuTCokh-21" target="HK7qRhVRVMb6XBuTCokh-45">
          <mxGeometry relative="1" as="geometry">
            <mxPoint x="200" y="660" as="targetPoint" />
          </mxGeometry>
        </mxCell>
        <mxCell id="HK7qRhVRVMb6XBuTCokh-21" value="Is one of nums 0?" style="rhombus;whiteSpace=wrap;html=1;" vertex="1" parent="WIyWlLk6GJQsqaUBKTNV-1">
          <mxGeometry x="40" y="600" width="120" height="120" as="geometry" />
        </mxCell>
        <mxCell id="HK7qRhVRVMb6XBuTCokh-22" value="return 0" style="rounded=0;whiteSpace=wrap;html=1;" vertex="1" parent="WIyWlLk6GJQsqaUBKTNV-1">
          <mxGeometry x="40" y="750" width="120" height="60" as="geometry" />
        </mxCell>
        <mxCell id="HK7qRhVRVMb6XBuTCokh-24" value="+" style="text;html=1;strokeColor=none;fillColor=none;align=center;verticalAlign=middle;whiteSpace=wrap;rounded=0;" vertex="1" parent="WIyWlLk6GJQsqaUBKTNV-1">
          <mxGeometry x="80" y="710" width="60" height="30" as="geometry" />
        </mxCell>
        <mxCell id="HK7qRhVRVMb6XBuTCokh-29" value="" style="edgeStyle=orthogonalEdgeStyle;rounded=0;orthogonalLoop=1;jettySize=auto;html=1;" edge="1" parent="WIyWlLk6GJQsqaUBKTNV-1" source="HK7qRhVRVMb6XBuTCokh-25" target="HK7qRhVRVMb6XBuTCokh-28">
          <mxGeometry relative="1" as="geometry" />
        </mxCell>
        <mxCell id="HK7qRhVRVMb6XBuTCokh-31" value="" style="edgeStyle=orthogonalEdgeStyle;rounded=0;orthogonalLoop=1;jettySize=auto;html=1;" edge="1" parent="WIyWlLk6GJQsqaUBKTNV-1" source="HK7qRhVRVMb6XBuTCokh-25" target="HK7qRhVRVMb6XBuTCokh-30">
          <mxGeometry relative="1" as="geometry" />
        </mxCell>
        <mxCell id="HK7qRhVRVMb6XBuTCokh-25" value="abs(num1) &amp;gt; abs(num2)" style="rhombus;whiteSpace=wrap;html=1;" vertex="1" parent="WIyWlLk6GJQsqaUBKTNV-1">
          <mxGeometry x="360" y="600" width="120" height="120" as="geometry" />
        </mxCell>
        <mxCell id="HK7qRhVRVMb6XBuTCokh-27" value="-" style="text;html=1;strokeColor=none;fillColor=none;align=center;verticalAlign=middle;whiteSpace=wrap;rounded=0;" vertex="1" parent="WIyWlLk6GJQsqaUBKTNV-1">
          <mxGeometry x="140" y="630" width="40" height="30" as="geometry" />
        </mxCell>
        <mxCell id="HK7qRhVRVMb6XBuTCokh-33" value="" style="edgeStyle=orthogonalEdgeStyle;rounded=0;orthogonalLoop=1;jettySize=auto;html=1;" edge="1" parent="WIyWlLk6GJQsqaUBKTNV-1" source="HK7qRhVRVMb6XBuTCokh-28">
          <mxGeometry relative="1" as="geometry">
            <mxPoint x="580" y="780" as="targetPoint" />
          </mxGeometry>
        </mxCell>
        <mxCell id="HK7qRhVRVMb6XBuTCokh-28" value="num1-times increment result with value of num2" style="rounded=0;whiteSpace=wrap;html=1;" vertex="1" parent="WIyWlLk6GJQsqaUBKTNV-1">
          <mxGeometry x="520" y="630" width="120" height="60" as="geometry" />
        </mxCell>
        <mxCell id="HK7qRhVRVMb6XBuTCokh-34" value="" style="edgeStyle=orthogonalEdgeStyle;rounded=0;orthogonalLoop=1;jettySize=auto;html=1;entryX=0.5;entryY=0;entryDx=0;entryDy=0;" edge="1" parent="WIyWlLk6GJQsqaUBKTNV-1" source="HK7qRhVRVMb6XBuTCokh-30" target="HK7qRhVRVMb6XBuTCokh-48">
          <mxGeometry relative="1" as="geometry">
            <mxPoint x="520" y="780" as="targetPoint" />
          </mxGeometry>
        </mxCell>
        <mxCell id="HK7qRhVRVMb6XBuTCokh-30" value="num2-times increment result with value of num1" style="rounded=0;whiteSpace=wrap;html=1;" vertex="1" parent="WIyWlLk6GJQsqaUBKTNV-1">
          <mxGeometry x="360" y="750" width="120" height="60" as="geometry" />
        </mxCell>
        <mxCell id="HK7qRhVRVMb6XBuTCokh-35" value="-" style="text;html=1;strokeColor=none;fillColor=none;align=center;verticalAlign=middle;whiteSpace=wrap;rounded=0;" vertex="1" parent="WIyWlLk6GJQsqaUBKTNV-1">
          <mxGeometry x="450" y="630" width="60" height="30" as="geometry" />
        </mxCell>
        <mxCell id="HK7qRhVRVMb6XBuTCokh-36" value="+" style="text;html=1;strokeColor=none;fillColor=none;align=center;verticalAlign=middle;whiteSpace=wrap;rounded=0;" vertex="1" parent="WIyWlLk6GJQsqaUBKTNV-1">
          <mxGeometry x="410" y="710" width="60" height="30" as="geometry" />
        </mxCell>
        <mxCell id="HK7qRhVRVMb6XBuTCokh-47" value="" style="edgeStyle=orthogonalEdgeStyle;rounded=0;orthogonalLoop=1;jettySize=auto;html=1;" edge="1" parent="WIyWlLk6GJQsqaUBKTNV-1" source="HK7qRhVRVMb6XBuTCokh-45" target="HK7qRhVRVMb6XBuTCokh-25">
          <mxGeometry relative="1" as="geometry" />
        </mxCell>
        <mxCell id="HK7qRhVRVMb6XBuTCokh-45" value="Store flag whether on of them is negative and second positive" style="rounded=0;whiteSpace=wrap;html=1;" vertex="1" parent="WIyWlLk6GJQsqaUBKTNV-1">
          <mxGeometry x="200" y="630" width="120" height="60" as="geometry" />
        </mxCell>
        <mxCell id="HK7qRhVRVMb6XBuTCokh-51" value="" style="edgeStyle=orthogonalEdgeStyle;rounded=0;orthogonalLoop=1;jettySize=auto;html=1;" edge="1" parent="WIyWlLk6GJQsqaUBKTNV-1" source="HK7qRhVRVMb6XBuTCokh-48" target="HK7qRhVRVMb6XBuTCokh-50">
          <mxGeometry relative="1" as="geometry" />
        </mxCell>
        <mxCell id="HK7qRhVRVMb6XBuTCokh-52" value="" style="edgeStyle=orthogonalEdgeStyle;rounded=0;orthogonalLoop=1;jettySize=auto;html=1;" edge="1" parent="WIyWlLk6GJQsqaUBKTNV-1" source="HK7qRhVRVMb6XBuTCokh-48" target="HK7qRhVRVMb6XBuTCokh-49">
          <mxGeometry relative="1" as="geometry" />
        </mxCell>
        <mxCell id="HK7qRhVRVMb6XBuTCokh-48" value="is negative bit true?" style="rhombus;whiteSpace=wrap;html=1;" vertex="1" parent="WIyWlLk6GJQsqaUBKTNV-1">
          <mxGeometry x="520" y="730" width="120" height="120" as="geometry" />
        </mxCell>
        <mxCell id="HK7qRhVRVMb6XBuTCokh-49" value="return positive result" style="rounded=0;whiteSpace=wrap;html=1;" vertex="1" parent="WIyWlLk6GJQsqaUBKTNV-1">
          <mxGeometry x="520" y="880" width="120" height="60" as="geometry" />
        </mxCell>
        <mxCell id="HK7qRhVRVMb6XBuTCokh-50" value="return negative result" style="rounded=0;whiteSpace=wrap;html=1;" vertex="1" parent="WIyWlLk6GJQsqaUBKTNV-1">
          <mxGeometry x="680" y="760" width="120" height="60" as="geometry" />
        </mxCell>
        <mxCell id="HK7qRhVRVMb6XBuTCokh-53" value="+" style="text;html=1;strokeColor=none;fillColor=none;align=center;verticalAlign=middle;whiteSpace=wrap;rounded=0;" vertex="1" parent="WIyWlLk6GJQsqaUBKTNV-1">
          <mxGeometry x="610" y="760" width="60" height="30" as="geometry" />
        </mxCell>
        <mxCell id="HK7qRhVRVMb6XBuTCokh-54" value="-" style="text;html=1;strokeColor=none;fillColor=none;align=center;verticalAlign=middle;whiteSpace=wrap;rounded=0;" vertex="1" parent="WIyWlLk6GJQsqaUBKTNV-1">
          <mxGeometry x="560" y="840" width="60" height="30" as="geometry" />
        </mxCell>
      </root>
    </mxGraphModel>
  </diagram>
</mxfile>
